<svg xmlns="http://www.w3.org/2000/svg" viewBox="0 0 230.316 59.229">
    <path d="M234.889,46.431l-6.151,4.635L224.1,44.915a7.654,7.654,0,0,0-8.332,6.542l-.077.542a2.741,2.741,0,0,0,2.332,3.095l19.9,2.8a2.741,2.741,0,0,0,3.095-2.333l.076-.542A7.655,7.655,0,0,0,234.889,46.431ZM219.515,30.388l.35.136-.464,3.3a1.318,1.318,0,0,0-.369,2.254l-1.377,3.4c-.151.377.008.808.319.852l2.362.332c.311.044.582-.328.541-.731l-.387-3.646a1.318,1.318,0,0,0,.267-2.268l.418-2.973,3.6,1.423a7.293,7.293,0,1,0,13.227,5.145,7.174,7.174,0,0,0-.338-3.333l5.627-.548a.908.908,0,0,0,.25-1.779l-10.4-4.114a4.91,4.91,0,0,0-2.244-.316L219.766,28.6a.913.913,0,0,0-.251,1.787Z"
          transform="translate(-13.882 -27.5)" style="fill:#fff"/>
    <g style="isolation:isolate">
        <g style="isolation:isolate">
            <path d="M45.241,83.734a25.539,25.539,0,0,1-12.92,3q-8.563,0-13.5-4.739T13.882,68.934a18.227,18.227,0,0,1,5.4-13.637q5.4-5.273,14.355-5.272a29.178,29.178,0,0,1,9.95,1.559v7.5a19.79,19.79,0,0,0-10.049-2.375,10.785,10.785,0,0,0-8.106,3.23A11.864,11.864,0,0,0,22.3,68.562q0,5.472,2.809,8.465a9.9,9.9,0,0,0,7.586,3,10.559,10.559,0,0,0,4.555-.817v-6.93h-7.1V65.89h15.1Z"
                  transform="translate(-13.882 -27.5)" style="fill:#fff"/>
            <path d="M74.149,75.666H57.616q.394,5.52,6.954,5.52a13.578,13.578,0,0,0,7.351-1.981v5.644a19.31,19.31,0,0,1-9.132,1.88q-6.14,0-9.529-3.4t-3.391-9.491q0-6.312,3.663-10a12.2,12.2,0,0,1,9.009-3.688q5.544,0,8.576,3.291t3.032,8.936Zm-7.252-4.8q0-5.446-4.405-5.445a4.2,4.2,0,0,0-3.255,1.559,7.078,7.078,0,0,0-1.671,3.886Z"
                  transform="translate(-13.882 -27.5)" style="fill:#fff"/>
            <path d="M77.144,85.442V79.106a16.6,16.6,0,0,0,3.848,1.733,12.747,12.747,0,0,0,3.626.569,7.775,7.775,0,0,0,3.28-.569,1.839,1.839,0,0,0,1.2-1.733,1.6,1.6,0,0,0-.544-1.237,5.057,5.057,0,0,0-1.4-.866,16.147,16.147,0,0,0-1.868-.669q-1.016-.3-1.955-.668a18.564,18.564,0,0,1-2.661-1.225,7.689,7.689,0,0,1-1.931-1.522,5.961,5.961,0,0,1-1.188-2,8,8,0,0,1-.408-2.7,6.946,6.946,0,0,1,.928-3.664,7.575,7.575,0,0,1,2.475-2.511,11.3,11.3,0,0,1,3.539-1.436,18.467,18.467,0,0,1,4.146-.458,22.9,22.9,0,0,1,3.415.26,25.5,25.5,0,0,1,3.416.755V67.2a12.4,12.4,0,0,0-3.181-1.3,13.442,13.442,0,0,0-3.328-.433,7.45,7.45,0,0,0-1.449.136,4.8,4.8,0,0,0-1.2.4,2.219,2.219,0,0,0-.817.669,1.54,1.54,0,0,0-.3.928,1.708,1.708,0,0,0,.445,1.187,3.86,3.86,0,0,0,1.163.855,11.444,11.444,0,0,0,1.6.643q.877.285,1.745.582a22.83,22.83,0,0,1,2.821,1.188,9.041,9.041,0,0,1,2.166,1.509,5.947,5.947,0,0,1,1.386,2.03,8.128,8.128,0,0,1-.495,6.621,7.838,7.838,0,0,1-2.6,2.6,11.792,11.792,0,0,1-3.737,1.459,20.742,20.742,0,0,1-4.393.458A22.623,22.623,0,0,1,77.144,85.442Z"
                  transform="translate(-13.882 -27.5)" style="fill:#fff"/>
            <path d="M123.872,75.666H107.339q.4,5.52,6.954,5.52a13.584,13.584,0,0,0,7.352-1.981v5.644a19.317,19.317,0,0,1-9.133,1.88q-6.139,0-9.529-3.4t-3.391-9.491q0-6.312,3.663-10a12.2,12.2,0,0,1,9.009-3.688q5.544,0,8.576,3.291t3.032,8.936Zm-7.252-4.8q0-5.446-4.405-5.445a4.2,4.2,0,0,0-3.255,1.559,7.07,7.07,0,0,0-1.67,3.886Z"
                  transform="translate(-13.882 -27.5)" style="fill:#fff"/>
            <path d="M149.612,86.111h-7.4V82.473h-.1a8.26,8.26,0,0,1-7.549,4.256,7.9,7.9,0,0,1-5.8-2.09,7.5,7.5,0,0,1-2.116-5.582q0-7.374,8.737-8.514l6.881-.916q0-4.158-4.5-4.158a15.372,15.372,0,0,0-8.612,2.7V62.276a19.386,19.386,0,0,1,4.466-1.484,23.488,23.488,0,0,1,5.16-.644q10.842,0,10.841,10.816Zm-7.35-10.3V74.107l-4.6.594q-3.811.5-3.811,3.44a2.847,2.847,0,0,0,.927,2.191,3.575,3.575,0,0,0,2.513.854,4.632,4.632,0,0,0,3.588-1.522A5.5,5.5,0,0,0,142.262,75.814Z"
                  transform="translate(-13.882 -27.5)" style="fill:#fff"/>
            <path d="M172.332,67.82a6.783,6.783,0,0,0-3.291-.767,4.74,4.74,0,0,0-3.984,1.869,8.152,8.152,0,0,0-1.436,5.086v12.1H155.8V60.767h7.821v4.7h.1q1.855-5.146,6.682-5.148a5.03,5.03,0,0,1,1.93.3Z"
                  transform="translate(-13.882 -27.5)" style="fill:#fff"/>
            <path d="M194.51,85.2q-2.65,1.535-7.649,1.534a12.929,12.929,0,0,1-9.455-3.539,12.225,12.225,0,0,1-3.613-9.132q0-6.461,3.873-10.185t10.358-3.725q4.481,0,6.486,1.188v6.633a8.92,8.92,0,0,0-5.471-1.831,7.209,7.209,0,0,0-5.334,1.967,7.35,7.35,0,0,0-1.967,5.432,7.225,7.225,0,0,0,1.881,5.285,6.913,6.913,0,0,0,5.173,1.918,10.321,10.321,0,0,0,5.718-1.832Z"
                  transform="translate(-13.882 -27.5)" style="fill:#fff"/>
            <path d="M223.961,86.111h-7.8v-14.4q0-5.568-4.06-5.568A4.154,4.154,0,0,0,208.74,67.7a6.013,6.013,0,0,0-1.287,3.959V86.111h-7.82V48.589h7.82v15.94h.1a8.883,8.883,0,0,1,7.8-4.381q8.612,0,8.612,10.4Z"
                  transform="translate(-13.882 -27.5)" style="fill:#fff"/>
        </g>
    </g>
</svg>