<?xml version="1.0" standalone="no"?>
<!DOCTYPE svg PUBLIC "-//W3C//DTD SVG 20010904//EN"
 "http://www.w3.org/TR/2001/REC-SVG-20010904/DTD/svg10.dtd">
<svg version="1.0" xmlns="http://www.w3.org/2000/svg"
 width="512.000000pt" height="512.000000pt" viewBox="0 0 512.000000 512.000000"
 preserveAspectRatio="xMidYMid meet">
<metadata>
Created by potrace 1.14, written by Peter Selinger 2001-2017
</metadata>
<g transform="translate(0.000000,512.000000) scale(0.100000,-0.100000)"
fill="#000000" stroke="none">
<path d="M2435 4903 c-11 -2 -76 -18 -145 -34 -69 -17 -133 -32 -143 -34 -10
-2 -27 -7 -37 -10 -10 -3 -27 -8 -37 -10 -10 -2 -40 -9 -68 -15 -27 -6 -57
-13 -65 -15 -8 -2 -64 -15 -125 -30 -60 -14 -117 -28 -125 -30 -8 -2 -71 -17
-140 -34 -327 -79 -537 -130 -560 -135 -14 -3 -72 -17 -130 -31 -58 -14 -113
-28 -123 -30 -10 -2 -26 -6 -35 -9 -9 -3 -30 -7 -45 -10 -134 -23 -196 -145
-123 -241 16 -21 44 -40 73 -50 27 -9 55 -20 63 -24 13 -7 15 -48 15 -270 l0
-262 -31 -24 c-97 -74 -101 -230 -9 -318 l32 -30 -29 -116 c-17 -64 -31 -123
-33 -131 -2 -8 -22 -88 -44 -176 -23 -89 -41 -171 -41 -183 0 -36 28 -78 57
-88 15 -4 117 -8 226 -7 292 2 284 -16 181 398 l-74 298 39 44 c46 52 66 115
56 176 -10 58 -26 88 -72 129 l-38 34 2 215 c2 279 1 260 16 255 6 -2 23 -6
37 -9 29 -5 325 -77 455 -111 50 -12 89 -27 88 -31 -1 -5 -16 -42 -32 -82 -26
-63 -50 -138 -66 -204 -9 -40 -19 -159 -19 -228 0 -184 38 -350 115 -510 219
-446 687 -709 1174 -658 92 9 114 13 170 28 22 6 49 13 61 15 81 18 257 108
357 183 229 173 385 416 448 700 27 124 30 339 5 455 -19 90 -60 215 -87 270
-15 29 -17 38 -7 42 14 5 402 99 701 170 192 46 231 59 258 91 63 76 34 195
-56 228 -38 14 -109 34 -147 41 -9 2 -119 29 -245 59 -449 109 -648 158 -663
161 -19 4 -209 50 -319 77 -46 11 -89 21 -95 22 -6 1 -20 5 -31 9 -11 3 -31 8
-45 11 -14 2 -83 19 -155 37 -106 26 -152 33 -250 35 -66 1 -129 0 -140 -3z"/>
<path d="M1617 1964 c-1 -1 -27 -5 -58 -8 -181 -21 -427 -124 -577 -242 -80
-64 -215 -206 -264 -280 -89 -134 -174 -332 -192 -449 -4 -22 -9 -51 -11 -65
-3 -14 -7 -92 -9 -173 -4 -109 -1 -162 10 -204 34 -130 115 -228 239 -289 l79
-39 1715 0 c1886 0 1753 -4 1858 62 100 62 163 147 194 261 15 52 18 91 14
206 -7 272 -70 476 -213 690 -54 81 -202 234 -282 293 -180 131 -401 215 -625
237 l-60 6 -437 -437 -438 -438 -438 438 c-412 412 -440 437 -470 435 -18 -1
-34 -3 -35 -4z"/>
</g>
</svg>
