<svg xmlns="http://www.w3.org/2000/svg" viewBox="0 0 261.11 39.573">
    <path d="M267.916,29.341l-7.4,7.239-7.239-7.4a10.292,10.292,0,0,0-9.982,10.158l-.008.736a3.685,3.685,0,0,0,3.642,3.725l27.012.3a3.683,3.683,0,0,0,3.723-3.643l.009-.736A10.292,10.292,0,0,0,267.916,29.341ZM244.655,10.6l.49.121-.05,4.481a1.773,1.773,0,0,0-.1,3.069l-1.251,4.767c-.136.528.15,1.076.572,1.081l3.207.035c.421,0,.719-.537.6-1.067L246.972,18.3a1.774,1.774,0,0,0-.035-3.07l.044-4.036,5.051,1.276a9.8,9.8,0,1,0,18.522,4.579,9.652,9.652,0,0,0-1.026-4.386l7.407-1.7a1.22,1.22,0,0,0,.027-2.415l-14.57-3.693a6.587,6.587,0,0,0-3.046-.034L244.682,8.179a1.226,1.226,0,0,0-.027,2.425Z"
          transform="translate(-16.882 -4.656)" style="fill:#fff"/>
    <g style="isolation:isolate">
        <g style="isolation:isolate">
            <path d="M48.241,41.234a25.539,25.539,0,0,1-12.92,2.995q-8.563,0-13.5-4.739T16.882,26.434a18.227,18.227,0,0,1,5.4-13.637q5.4-5.273,14.355-5.272a29.178,29.178,0,0,1,9.95,1.559v7.5a19.79,19.79,0,0,0-10.049-2.375,10.785,10.785,0,0,0-8.106,3.23A11.864,11.864,0,0,0,25.3,26.062q0,5.472,2.809,8.465a9.9,9.9,0,0,0,7.586,2.995,10.559,10.559,0,0,0,4.555-.817v-6.93h-7.1V23.39h15.1Z"
                  transform="translate(-16.882 -4.656)" style="fill:#fff"/>
            <path d="M77.149,33.166H60.616q.394,5.52,6.954,5.52a13.578,13.578,0,0,0,7.351-1.981v5.644a19.31,19.31,0,0,1-9.132,1.88q-6.14,0-9.529-3.4t-3.391-9.491q0-6.312,3.663-10a12.2,12.2,0,0,1,9.009-3.688q5.544,0,8.576,3.292t3.032,8.935Zm-7.252-4.8q0-5.445-4.405-5.445a4.2,4.2,0,0,0-3.255,1.559,7.078,7.078,0,0,0-1.671,3.886Z"
                  transform="translate(-16.882 -4.656)" style="fill:#fff"/>
            <path d="M80.144,42.942V36.606a16.6,16.6,0,0,0,3.848,1.733,12.747,12.747,0,0,0,3.626.569,7.775,7.775,0,0,0,3.28-.569,1.839,1.839,0,0,0,1.2-1.733,1.6,1.6,0,0,0-.544-1.237,5.057,5.057,0,0,0-1.4-.866,16.147,16.147,0,0,0-1.868-.669q-1.016-.3-1.955-.668a18.564,18.564,0,0,1-2.661-1.225,7.689,7.689,0,0,1-1.931-1.522,5.961,5.961,0,0,1-1.188-2,8.006,8.006,0,0,1-.408-2.7,6.945,6.945,0,0,1,.928-3.663,7.575,7.575,0,0,1,2.475-2.511,11.3,11.3,0,0,1,3.539-1.436,18.467,18.467,0,0,1,4.146-.458,22.9,22.9,0,0,1,3.415.26,25.5,25.5,0,0,1,3.416.755V24.7a12.363,12.363,0,0,0-3.181-1.3,13.442,13.442,0,0,0-3.328-.433,7.443,7.443,0,0,0-1.449.136,4.8,4.8,0,0,0-1.2.4,2.227,2.227,0,0,0-.817.668,1.547,1.547,0,0,0-.3.929,1.71,1.71,0,0,0,.445,1.187,3.86,3.86,0,0,0,1.163.855,11.444,11.444,0,0,0,1.6.643q.877.285,1.745.582a22.83,22.83,0,0,1,2.821,1.188,9.041,9.041,0,0,1,2.166,1.509,5.947,5.947,0,0,1,1.386,2.03,7.206,7.206,0,0,1,.482,2.772,7.242,7.242,0,0,1-.977,3.849,7.838,7.838,0,0,1-2.6,2.6,11.792,11.792,0,0,1-3.737,1.459,20.742,20.742,0,0,1-4.393.458A22.623,22.623,0,0,1,80.144,42.942Z"
                  transform="translate(-16.882 -4.656)" style="fill:#fff"/>
            <path d="M126.872,33.166H110.339q.4,5.52,6.954,5.52a13.584,13.584,0,0,0,7.352-1.981v5.644a19.317,19.317,0,0,1-9.133,1.88q-6.139,0-9.529-3.4t-3.391-9.491q0-6.312,3.663-10a12.2,12.2,0,0,1,9.009-3.688q5.544,0,8.576,3.292t3.032,8.935Zm-7.252-4.8q0-5.445-4.405-5.445a4.2,4.2,0,0,0-3.255,1.559,7.07,7.07,0,0,0-1.67,3.886Z"
                  transform="translate(-16.882 -4.656)" style="fill:#fff"/>
            <path d="M152.612,43.611h-7.4V39.973h-.1a8.259,8.259,0,0,1-7.549,4.256,7.9,7.9,0,0,1-5.8-2.09,7.5,7.5,0,0,1-2.116-5.582q0-7.374,8.737-8.514l6.881-.916q0-4.158-4.5-4.158a15.377,15.377,0,0,0-8.613,2.7V19.776a19.43,19.43,0,0,1,4.467-1.484,23.49,23.49,0,0,1,5.161-.644q10.841,0,10.84,10.816Zm-7.35-10.3V31.607l-4.6.594q-3.811.495-3.811,3.44a2.847,2.847,0,0,0,.927,2.191,3.575,3.575,0,0,0,2.513.854,4.632,4.632,0,0,0,3.588-1.522A5.5,5.5,0,0,0,145.262,33.314Z"
                  transform="translate(-16.882 -4.656)" style="fill:#fff"/>
            <path d="M175.332,25.32a6.783,6.783,0,0,0-3.291-.767,4.74,4.74,0,0,0-3.984,1.869,8.152,8.152,0,0,0-1.436,5.086v12.1H158.8V18.267h7.821v4.7h.1q1.855-5.147,6.682-5.148a5.03,5.03,0,0,1,1.93.3Z"
                  transform="translate(-16.882 -4.656)" style="fill:#fff"/>
            <path d="M197.51,42.7q-2.65,1.535-7.649,1.534a12.929,12.929,0,0,1-9.455-3.539,12.225,12.225,0,0,1-3.613-9.132q0-6.46,3.873-10.185t10.358-3.725q4.481,0,6.486,1.188v6.633a8.92,8.92,0,0,0-5.471-1.831,7.209,7.209,0,0,0-5.334,1.967,7.35,7.35,0,0,0-1.967,5.432,7.225,7.225,0,0,0,1.881,5.285,6.913,6.913,0,0,0,5.173,1.918,10.321,10.321,0,0,0,5.718-1.832Z"
                  transform="translate(-16.882 -4.656)" style="fill:#fff"/>
            <path d="M226.961,43.611h-7.8v-14.4q0-5.568-4.06-5.568A4.154,4.154,0,0,0,211.74,25.2a6.013,6.013,0,0,0-1.287,3.959V43.611h-7.82V6.09h7.82V22.029h.1a8.883,8.883,0,0,1,7.8-4.381q8.612,0,8.612,10.4Z"
                  transform="translate(-16.882 -4.656)" style="fill:#fff"/>
        </g>
    </g>
</svg>
