<svg xmlns="http://www.w3.org/2000/svg" viewBox="0 0 15.388 26">
    <path d="M22.194,9.694C22.134,14.67,16.745,17.35,15,27.5,13.328,17.35,7.806,14.67,7.806,9.694a7.194,7.194,0,0,1,14.388,0Z"
          transform="translate(-7.306 -2)" fill="#d63f35"/>
    <path d="M15,2.5a7.228,7.228,0,0,1,7.194,7.194C22.134,14.67,16.745,17.35,15,27.5,13.328,17.35,7.806,14.67,7.806,9.694A7.228,7.228,0,0,1,15,2.5M15,2A7.7,7.7,0,0,0,7.306,9.694c0,2.379,1.19,4.272,2.568,6.465a28.34,28.34,0,0,1,4.633,11.422A.5.5,0,0,0,15,28h0a.5.5,0,0,0,.493-.415,29.192,29.192,0,0,1,4.634-11.428c1.362-2.191,2.539-4.083,2.567-6.457A7.7,7.7,0,0,0,15,2Z"
          transform="translate(-7.306 -2)" fill="#fff"/>
    <circle cx="7.694" cy="8" r="3" fill="#752622"/>
</svg>